<svg width="44" height="44" viewBox="0 0 44 44" fill="none" xmlns="http://www.w3.org/2000/svg">
<path d="M31.1429 10H12.8571C11.28 10 10 11.28 10 12.8571V31.1429C10 32.72 11.28 34 12.8571 34H31.1429C32.72 34 34 32.72 34 31.1429V12.8571C34 11.28 32.72 10 31.1429 10ZM17.4286 19.1429V30H14V19.1429H17.4286ZM14 15.9829C14 15.1829 14.6857 14.5714 15.7143 14.5714C16.7429 14.5714 17.3886 15.1829 17.4286 15.9829C17.4286 16.7829 16.7886 17.4286 15.7143 17.4286C14.6857 17.4286 14 16.7829 14 15.9829ZM30 30H26.5714C26.5714 30 26.5714 24.7086 26.5714 24.2857C26.5714 23.1429 26 22 24.5714 21.9771H24.5257C23.1429 21.9771 22.5714 23.1543 22.5714 24.2857C22.5714 24.8057 22.5714 30 22.5714 30H19.1429V19.1429H22.5714V20.6057C22.5714 20.6057 23.6743 19.1429 25.8914 19.1429C28.16 19.1429 30 20.7029 30 23.8629V30Z" fill="#0027D5"/>
</svg>
