<svg width="44" height="44" viewBox="0 0 44 44" fill="none" xmlns="http://www.w3.org/2000/svg">
<g clip-path="url(#clip0_236_1788)">
<path fill-rule="evenodd" clip-rule="evenodd" d="M31.9921 32.816C32.7601 32.224 33.2961 31.392 33.5281 30.8C33.9921 29.608 34.0001 28.256 34.0001 27.4V16.6C34.0001 15.752 34.0001 14.392 33.5281 13.2C33.2961 12.608 32.7521 11.768 31.9921 11.184C31.5521 10.84 31.0241 10.52 30.3041 10.304C29.5281 10.08 28.5841 10 27.4001 10H16.6001C15.4161 10 14.4721 10.08 13.6961 10.304C12.9761 10.52 12.4481 10.848 12.0081 11.184C11.2401 11.776 10.7041 12.608 10.4721 13.2C10.0081 14.392 10.0001 15.744 10.0001 16.6V27.4C10.0001 28.256 10.0081 29.608 10.4721 30.8C10.7041 31.392 11.2481 32.232 12.0081 32.816C12.4481 33.16 12.9761 33.48 13.6961 33.696C14.4721 33.92 15.4161 34 16.6001 34H27.4001C28.5841 34 29.5361 33.928 30.3041 33.696C31.0241 33.48 31.5521 33.152 31.9921 32.816ZM13.5601 20.992C13.6241 16.4 17.3841 12.672 21.9761 12.656C26.6401 12.648 30.4401 16.44 30.4561 21.096C30.4561 24.776 28.0961 27.912 24.8081 29.064C24.7281 29.096 24.6401 29.032 24.6561 28.944L24.7761 28.08C24.7841 27.976 24.8481 27.888 24.9441 27.848C27.5441 26.704 29.3681 24.112 29.3681 21.096C29.3681 17.016 26.0321 13.704 21.9441 13.736C17.9521 13.768 14.6881 17.024 14.6481 21.024C14.6161 24.072 16.4481 26.704 19.0721 27.848C19.1601 27.896 19.2241 27.976 19.2401 28.08C19.2614 28.272 19.2899 28.4641 19.3183 28.656C19.3325 28.752 19.3468 28.848 19.3601 28.944C19.3681 29.024 19.2881 29.096 19.2081 29.064C15.8881 27.896 13.5121 24.712 13.5601 20.992ZM23.9681 20.408C23.9681 21.496 23.0881 22.376 22.0001 22.376C20.9121 22.376 20.0321 21.496 20.0321 20.408C20.0321 19.32 20.9121 18.44 22.0001 18.44C23.0881 18.44 23.9681 19.328 23.9681 20.408ZM23.7361 23.8C23.9281 23.992 24.0241 24.2 24.0561 24.488C24.1201 25.048 24.0881 25.528 24.0161 26.304C23.9521 27.04 23.8321 28.016 23.6801 29.016C23.5681 29.728 23.4801 30.112 23.4001 30.384C23.2721 30.824 22.7761 31.216 22.0001 31.216C21.2241 31.216 20.7361 30.832 20.6001 30.384C20.5201 30.112 20.4321 29.728 20.3201 29.016C20.1681 28.024 20.0481 27.04 19.9841 26.304L19.9834 26.2954C19.9198 25.5244 19.8803 25.0459 19.9441 24.488C19.9761 24.2 20.0801 24 20.2641 23.8C20.6241 23.416 21.2561 23.176 22.0001 23.176C22.7441 23.176 23.3761 23.424 23.7361 23.8ZM21.7841 15.456C18.7921 15.568 16.3921 18.04 16.3521 21.032C16.3281 23 17.3121 24.744 18.8241 25.776C18.8961 25.824 19.0001 25.768 19.0001 25.68C18.9761 25.336 18.9761 25.032 18.9921 24.712C19.0001 24.608 18.9601 24.512 18.8801 24.44C17.9601 23.576 17.4001 22.344 17.4321 20.984C17.4961 18.584 19.4241 16.632 21.8241 16.536C24.4321 16.432 26.5761 18.528 26.5761 21.104C26.5761 22.416 26.0161 23.6 25.1281 24.44C25.0561 24.512 25.0161 24.608 25.0161 24.712C25.0321 25.024 25.0241 25.328 25.0081 25.672C25.0001 25.76 25.1041 25.824 25.1841 25.768C26.6721 24.752 27.6561 23.032 27.6561 21.096C27.6641 17.912 25.0001 15.328 21.7841 15.456Z" fill="#0027D5"/>
</g>
<defs>
<clipPath id="clip0_236_1788">
<rect width="24" height="24" fill="white" transform="translate(10 10)"/>
</clipPath>
</defs>
</svg>
